name D:\school\WTK\thesis\model\3dpredictsim\Results\debug_batch\Pog_s1_tmt_bCst_d05_k500_ig24.mot
datacolumns 128
datarows 4
range 1.08492664 1.11747444
endheader
time	pelvis_tilt	pelvis_list	pelvis_rotation	pelvis_tx	pelvis_ty	pelvis_tz	hip_flexion_l	hip_adduction_l	hip_rotation_l	hip_flexion_r	hip_adduction_r	hip_rotation_r	knee_angle_l	knee_angle_r	ankle_angle_l	ankle_angle_r	subtalar_angle_l	subtalar_angle_r	tmt_angle_l	tmt_angle_r	mtp_angle_l	mtp_angle_r	lumbar_extension	lumbar_bending	lumbar_rotation	arm_flex_l	arm_add_l	arm_rot_l	arm_flex_r	arm_add_r	arm_rot_r	elbow_flex_l	elbow_flex_r	pro_sup_l	pro_sup_r	glut_med1_l/activation	glut_med2_l/activation	glut_med3_l/activation	glut_min1_l/activation	glut_min2_l/activation	glut_min3_l/activation	semimem_l/activation	semiten_l/activation	bifemlh_l/activation	bifemsh_l/activation	sar_l/activation	add_long_l/activation	add_brev_l/activation	add_mag1_l/activation	add_mag2_l/activation	add_mag3_l/activation	tfl_l/activation	pect_l/activation	grac_l/activation	glut_max1_l/activation	glut_max2_l/activation	glut_max3_l/activation	iliacus_l/activation	psoas_l/activation	quad_fem_l/activation	gem_l/activation	peri_l/activation	rect_fem_l/activation	vas_med_l/activation	vas_int_l/activation	vas_lat_l/activation	med_gas_l/activation	lat_gas_l/activation	soleus_l/activation	tib_post_l/activation	flex_dig_l/activation	flex_hal_l/activation	tib_ant_l/activation	per_brev_l/activation	per_long_l/activation	per_tert_l/activation	ext_dig_l/activation	ext_hal_l/activation	ercspn_l/activation	intobl_l/activation	extobl_l/activation	glut_med1_r/activation	glut_med2_r/activation	glut_med3_r/activation	glut_min1_r/activation	glut_min2_r/activation	glut_min3_r/activation	semimem_r/activation	semiten_r/activation	bifemlh_r/activation	bifemsh_r/activation	sar_r/activation	add_long_r/activation	add_brev_r/activation	add_mag1_r/activation	add_mag2_r/activation	add_mag3_r/activation	tfl_r/activation	pect_r/activation	grac_r/activation	glut_max1_r/activation	glut_max2_r/activation	glut_max3_r/activation	iliacus_r/activation	psoas_r/activation	quad_fem_r/activation	gem_r/activation	peri_r/activation	rect_fem_r/activation	vas_med_r/activation	vas_int_r/activation	vas_lat_r/activation	med_gas_r/activation	lat_gas_r/activation	soleus_r/activation	tib_post_r/activation	flex_dig_r/activation	flex_hal_r/activation	tib_ant_r/activation	per_brev_r/activation	per_long_r/activation	per_tert_r/activation	ext_dig_r/activation	ext_hal_r/activation	ercspn_r/activation	intobl_r/activation	extobl_r/activation	
          1.08492664	         -2.93015607	         -2.26697917	          5.41609831	          1.35615830	          0.85782392	         -0.00244345	        -17.79542638	         -1.62690290	          7.31684814	         31.75102015	          3.14738142	         -1.76909522	         -6.92654546	        -14.30278224	          0.34893030	          7.15700212	          9.53686274	         -3.41365784	          3.76930912	          0.06930591	         20.29670806	         -0.12222490	         -1.89206050	          0.57586948	         -1.98009028	          7.69218042	        -13.45137651	         17.02451182	         -8.57857379	        -13.52782946	          7.13384161	         35.17058359	         14.35514774	         86.51662706	         86.51662706	          0.33381684	          0.11230459	          0.08180523	          0.32625368	          0.21816172	          0.11478639	          0.05000024	          0.05000005	          0.05000003	          0.07477766	          0.11478253	          0.05000004	          0.05000004	          0.05000005	          0.05000013	          0.05000010	          0.32784200	          0.05000023	          0.05000012	          0.05000138	          0.05000093	          0.05000027	          0.40729017	          0.62925634	          0.05000006	          0.05000022	          0.05002028	          0.22485353	          0.05309853	          0.05000104	          0.05000121	          0.32806486	          0.44259055	          0.32719081	          0.26935532	          0.27435878	          0.37184245	          0.05000002	          0.05904177	          0.14589057	          0.05000015	          0.05000004	          0.05000014	          0.05000000	          0.05000000	          0.05000000	          0.09280430	          0.05000006	          0.05904101	          0.05000004	          0.05000005	          0.05000024	          0.05904110	          0.05904114	          0.22157679	          0.05000024	          0.05000101	          0.09681240	          0.18721137	          0.19397939	          0.15069260	          0.10073488	          0.05904108	          0.05006844	          0.07167975	          0.05904252	          0.06971681	          0.10326584	          0.05000004	          0.05000006	          0.23940250	          0.05314525	          0.05000022	          0.05000006	          0.07749029	          0.08376418	          0.06925044	          0.05869983	          0.05000077	          0.05904103	          0.05000004	          0.05000120	          0.05006943	          0.47632351	          0.37839921	          0.21843384	          0.24472756	          0.52788559	          0.23923503	          0.07079846	          0.11560146	          0.11502922	
          1.09577590	         -2.92684879	         -2.35693772	          5.71615202	          1.37233832	          0.85679045	         -0.00224821	        -17.69523136	         -1.92959012	          7.08807195	         31.16040150	          3.51102973	         -1.56727925	         -8.78520980	        -14.21859572	         -0.29529600	          6.55274734	         10.52473722	         -3.89350867	          3.35359382	          0.07986131	         21.50470562	         -0.10119014	         -1.70021972	          0.78666799	         -2.05571207	          7.57090241	        -13.45812710	         17.28014270	         -9.60844978	        -13.51634718	          7.04893943	         36.28462796	         14.17066577	         86.51662706	         86.51662706	          0.28269895	          0.09510721	          0.06927828	          0.27629395	          0.18475427	          0.09720898	          0.05001328	          0.05000043	          0.05000067	          0.06332685	          0.09720577	          0.11396330	          0.06731638	          0.06911277	          0.05018355	          0.06971664	          0.27763906	          0.05016823	          0.05000127	          0.05000101	          0.05000082	          0.05000115	          0.34492118	          0.56251562	          0.05000028	          0.05036143	          0.05904109	          0.19042134	          0.05000039	          0.18017646	          0.14346545	          0.27782774	          0.37481595	          0.28591052	          0.24370813	          0.23234649	          0.31490214	          0.05000000	          0.05000088	          0.14955021	          0.05000004	          0.05000001	          0.05000005	          0.05000000	          0.06971693	          0.05000001	          0.07859307	          0.05486350	          0.05000005	          0.05904121	          0.05904101	          0.05000023	          0.05000005	          0.05000013	          0.18764652	          0.05000011	          0.05000028	          0.10374928	          0.15854421	          0.24457081	          0.17492635	          0.08910994	          0.05000012	          0.05000059	          0.06070350	          0.05000150	          0.05904102	          0.11329778	          0.05052491	          0.06528408	          0.53851892	          0.14420284	          0.09926098	          0.06971705	          0.18190446	          0.18839910	          0.15964847	          0.05000000	          0.05000000	          0.05000000	          0.05000006	          0.05904111	          0.05000051	          0.53345465	          0.33392650	          0.22744060	          0.40644479	          0.56528624	          0.23407283	          0.05995698	          0.09789922	          0.09741461	
          1.10662517	         -2.91948932	         -2.44511556	          5.99085506	          1.38883662	          0.85578172	         -0.00206409	        -17.52831013	         -2.22661671	          6.84885374	         30.43931707	          3.81913031	         -1.29989892	        -10.75542547	        -14.63370827	         -1.09249016	          5.91025524	         11.46821580	         -4.39240604	          2.86477929	         -0.04813227	         22.62216134	         -0.14085905	         -1.48445007	          1.00319702	         -2.12139685	          7.36224612	        -13.46305650	         17.46821885	        -10.66359246	        -13.50716788	          6.98986935	         37.35835820	         14.04637069	         86.51662706	         86.51662706	          0.36142679	          0.08054330	          0.05866961	          0.23398468	          0.15646257	          0.08232322	          0.05000072	          0.05000033	          0.05000033	          0.05362952	          0.08232060	          0.14183092	          0.11263045	          0.05904169	          0.05904127	          0.05904117	          0.23512388	          0.09481491	          0.05884028	          0.05000911	          0.05002054	          0.05904058	          0.29210290	          0.53783206	          0.05904092	          0.05000059	          0.05000007	          0.16126182	          0.11306938	          0.15258607	          0.12149673	          0.23528352	          0.31741976	          0.24212857	          0.20638872	          0.19676697	          0.26668072	          0.05000000	          0.05000014	          0.17082620	          0.05000004	          0.05000001	          0.05000005	          0.05293800	          0.05904107	          0.05648877	          0.26071878	          0.05000002	          0.24388297	          0.05000017	          0.05000006	          0.20688097	          0.07636645	          0.05000035	          0.16793207	          0.05000008	          0.05000052	          0.08786224	          0.21092819	          0.20711942	          0.14814001	          0.12419092	          0.05000018	          0.05904282	          0.12231315	          0.05000005	          0.05000006	          0.09594864	          0.05904102	          0.05802465	          0.45605464	          0.12212086	          0.15627603	          0.05904117	          0.15404915	          0.15954925	          0.13520125	          0.05904120	          0.05904131	          0.05904106	          0.05904105	          0.05000018	          0.05000066	          0.45176586	          0.34863796	          0.19261230	          0.34420529	          0.58413801	          0.19822889	          0.05077568	          0.11019007	          0.08249735	
          1.11747444	         -2.90985499	         -2.53234748	          6.23191018	          1.40548891	          0.85480503	         -0.00187024	        -17.27392941	         -2.51456672	          6.60559228	         29.59423560	          4.08755357	         -1.02268821	        -12.85659817	        -15.06785956	         -2.04416857	          5.40009158	         12.35040143	         -4.88933691	          2.35367233	         -0.02404482	         23.56326884	         -0.16288057	         -1.26236494	          1.22558982	         -2.17832076	          7.08748531	        -13.47122727	         17.59991837	        -11.70131754	        -13.50150552	          6.97265213	         38.38549959	         13.95753412	         86.51662706	         86.51662706	          0.31300118	          0.06820958	          0.05000003	          0.35825746	          0.13250323	          0.06971696	          0.05000103	          0.05000006	          0.05000005	          0.05000009	          0.06971694	          0.12929777	          0.09538321	          0.05000060	          0.05000041	          0.05000021	          0.23926701	          0.08029653	          0.05000020	          0.05000050	          0.05000029	          0.05000018	          0.24737285	          0.50541049	          0.05000004	          0.05000026	          0.05000017	          0.13656755	          0.09575513	          0.13538490	          0.13554188	          0.19925416	          0.26881275	          0.20505102	          0.17478409	          0.16663577	          0.22584349	          0.05000005	          0.08130422	          0.17263388	          0.05000014	          0.10804286	          0.05000017	          0.07214573	          0.05000001	          0.05000000	          0.32147964	          0.28681460	          0.34800918	          0.16690644	          0.21455274	          0.17520141	          0.06467236	          0.08510304	          0.14221637	          0.08232318	          0.05000140	          0.07440776	          0.17862842	          0.17540293	          0.12545518	          0.13948322	          0.05000019	          0.05000162	          0.10358326	          0.21607693	          0.16272969	          0.11672592	          0.05000003	          0.05000003	          0.38621826	          0.10342037	          0.13234534	          0.05000011	          0.13045943	          0.16355684	          0.11449779	          0.05000013	          0.05000024	          0.05000001	          0.05000000	          0.05904102	          0.05002833	          0.57767276	          0.42780964	          0.22034407	          0.61945059	          0.63047956	          0.31996996	          0.07270998	          0.09339955	          0.06986439	
